<?xml version="1.0" encoding="iso-8859-1"?>
<!-- Generator: Adobe Illustrator 19.0.0, SVG Export Plug-In . SVG Version: 6.00 Build 0)  -->
<svg version="1.1" id="Layer_1" xmlns="http://www.w3.org/2000/svg" xmlns:xlink="http://www.w3.org/1999/xlink" x="0px" y="0px"
	 viewBox="0 0 328 328" style="enable-background:new 0 0 328 328;" xml:space="preserve">
<g id="XMLID_449_">
	<path id="XMLID_450_" d="M15,286.75h125.596c19.246,24.348,49.031,40,82.404,40c57.897,0,105-47.103,105-105s-47.103-105-105-105
		c-34.488,0-65.145,16.716-84.297,42.469c-7.764-1.627-15.695-2.469-23.703-2.469c-63.411,0-115,51.589-115,115
		C0,280.034,6.716,286.75,15,286.75z M223,146.75c41.355,0,75,33.645,75,75s-33.645,75-75,75s-75-33.645-75-75
		S181.645,146.75,223,146.75z"/>
	<path id="XMLID_453_" d="M191.181,253.569c2.929,2.929,6.768,4.394,10.606,4.394c3.839,0,7.678-1.465,10.607-4.394L223,242.963
		l10.606,10.606c2.929,2.929,6.768,4.394,10.607,4.394c3.839,0,7.678-1.465,10.606-4.394c5.858-5.858,5.858-15.355,0-21.213
		l-10.606-10.606l10.606-10.606c5.858-5.858,5.858-15.355,0-21.213c-5.857-5.858-15.355-5.858-21.213,0L223,200.537l-10.606-10.606
		c-5.857-5.858-15.355-5.858-21.213,0c-5.858,5.858-5.858,15.355,0,21.213l10.606,10.606l-10.606,10.606
		C185.322,238.215,185.322,247.711,191.181,253.569z"/>
	<path id="XMLID_454_" d="M115,1.25c-34.601,0-62.75,28.15-62.75,62.751S80.399,126.75,115,126.75
		c34.602,0,62.752-28.148,62.752-62.749S149.602,1.25,115,1.25z"/>
</g>
<g>
</g>
<g>
</g>
<g>
</g>
<g>
</g>
<g>
</g>
<g>
</g>
<g>
</g>
<g>
</g>
<g>
</g>
<g>
</g>
<g>
</g>
<g>
</g>
<g>
</g>
<g>
</g>
<g>
</g>
</svg>
